<svg width="164" height="37" viewBox="0 0 164 37" fill="none" xmlns="http://www.w3.org/2000/svg">
<g clip-path="url(#clip0_3_7)">
<path d="M164.025 63.7754C164.025 87.2267 164.019 110.678 164.05 134.13C164.05 135.083 163.959 135.402 162.816 135.399C108.971 135.363 55.1289 135.363 1.28411 135.399C0.140195 135.399 0.0498047 135.08 0.0498047 134.127C0.0809739 110.576 0.0747401 87.0222 0.0747401 63.4715C2.49971 57.1454 7.55535 54.2456 14.185 53.4966C15.4942 53.3492 15.6407 52.6754 15.6594 51.6737C15.7809 45.0137 19.2282 40.315 25.0631 37.1053C29.1899 34.8341 33.6845 33.9588 38.4067 34.2054C39.5973 34.2686 40.3111 33.9167 40.8503 32.8398C44.6717 25.2262 50.7029 19.7754 58.6105 16.2289C62.0018 14.7067 65.4865 13.3832 68.753 11.6114C74.1484 8.67846 79.1199 5.28228 82.3615 0C82.4644 0 82.5703 0 82.6732 0C84.4436 3.08634 86.9652 5.5139 89.839 7.63463C94.1248 10.7962 98.8687 13.1756 103.834 15.1309C112.901 18.7015 119.899 24.42 124.225 32.9932C124.677 33.8896 125.285 34.2115 126.304 34.1693C128.972 34.0611 131.587 34.4371 134.146 35.165C142.68 37.5896 148.774 44.2165 148.235 51.9143C148.157 53.0063 148.768 53.3462 149.83 53.4785C156.566 54.3148 161.69 57.2658 164.025 63.7754Z" fill="white"/>
</g>
<defs>
<clipPath id="clip0_3_7">
<rect width="164" height="37" fill="white"/>
</clipPath>
</defs>
</svg>
